<svg xmlns="http://www.w3.org/2000/svg" xmlns:xlink="http://www.w3.org/1999/xlink" width="1200" zoomAndPan="magnify" viewBox="0 0 900 374.999991" height="500" preserveAspectRatio="xMidYMid meet" version="1.2"><defs><clipPath id="9c95a2357c"><path d="M 7.507812 85.988281 L 182.257812 85.988281 L 182.257812 260.738281 L 7.507812 260.738281 Z M 7.507812 85.988281 "/></clipPath></defs><g id="cd67ac6eb4"><g style="fill:#ffffff;fill-opacity:1;"><g transform="translate(182.335102, 238.63727)"><path style="stroke:none" d="M 75.25 -137.1875 C 88.707031 -137.1875 101.019531 -133.566406 112.1875 -126.328125 C 123.351562 -119.085938 131.742188 -109.578125 137.359375 -97.796875 L 109.078125 -97.796875 C 100.429688 -108.117188 89.15625 -113.28125 75.25 -113.28125 C 62.894531 -113.28125 52.367188 -108.90625 43.671875 -100.15625 C 34.984375 -91.40625 30.640625 -80.859375 30.640625 -68.515625 C 30.640625 -56.273438 35.015625 -45.78125 43.765625 -37.03125 C 52.515625 -28.28125 63.007812 -23.90625 75.25 -23.90625 C 89.15625 -23.90625 100.429688 -29.066406 109.078125 -39.390625 L 137.359375 -39.390625 C 131.742188 -27.609375 123.351562 -18.097656 112.1875 -10.859375 C 101.019531 -3.617188 88.707031 0 75.25 0 C 56.28125 0 40.117188 -6.675781 26.765625 -20.03125 C 13.410156 -33.382812 6.734375 -49.539062 6.734375 -68.5 C 6.734375 -87.46875 13.410156 -103.65625 26.765625 -117.0625 C 40.117188 -130.476562 56.28125 -137.1875 75.25 -137.1875 Z M 75.25 -137.1875 "/></g></g><g style="fill:#ffffff;fill-opacity:1;"><g transform="translate(320.68972, 238.63727)"><path style="stroke:none" d="M 26.265625 -117.0625 C 39.617188 -130.476562 55.773438 -137.1875 74.734375 -137.1875 C 93.703125 -137.1875 109.890625 -130.476562 123.296875 -117.0625 C 136.710938 -103.65625 143.421875 -87.46875 143.421875 -68.5 C 143.421875 -49.539062 136.710938 -33.382812 123.296875 -20.03125 C 109.890625 -6.675781 93.703125 0 74.734375 0 C 55.773438 0 39.617188 -6.675781 26.265625 -20.03125 C 12.910156 -33.382812 6.234375 -49.539062 6.234375 -68.5 C 6.234375 -87.46875 12.910156 -103.65625 26.265625 -117.0625 Z M 106.375 -100.15625 C 97.625 -108.90625 87.078125 -113.28125 74.734375 -113.28125 C 62.390625 -113.28125 51.84375 -108.90625 43.09375 -100.15625 C 34.34375 -91.40625 29.96875 -80.859375 29.96875 -68.515625 C 29.96875 -56.171875 34.34375 -45.648438 43.09375 -36.953125 C 51.84375 -28.253906 62.390625 -23.90625 74.734375 -23.90625 C 87.078125 -23.90625 97.625 -28.253906 106.375 -36.953125 C 115.132812 -45.648438 119.515625 -56.171875 119.515625 -68.515625 C 119.515625 -80.859375 115.132812 -91.40625 106.375 -100.15625 Z M 106.375 -100.15625 "/></g></g><g style="fill:#ffffff;fill-opacity:1;"><g transform="translate(470.490071, 238.63727)"><path style="stroke:none" d="M 6.5625 0 L 6.5625 -137.1875 L 49.15625 -137.1875 C 68.113281 -137.1875 84.269531 -130.476562 97.625 -117.0625 C 110.976562 -103.65625 117.65625 -87.46875 117.65625 -68.5 C 117.65625 -49.539062 110.976562 -33.382812 97.625 -20.03125 C 84.269531 -6.675781 68.113281 0 49.15625 0 Z M 49.15625 -23.90625 C 61.5 -23.90625 72.019531 -28.28125 80.71875 -37.03125 C 89.414062 -45.78125 93.765625 -56.273438 93.765625 -68.515625 C 93.765625 -80.859375 89.414062 -91.40625 80.71875 -100.15625 C 72.019531 -108.90625 61.5 -113.28125 49.15625 -113.28125 L 30.296875 -113.28125 L 30.296875 -23.90625 Z M 49.15625 -23.90625 "/></g></g><g style="fill:#ffffff;fill-opacity:1;"><g transform="translate(576.864076, 238.63727)"><path style="stroke:none" d="M 104.359375 0 L 92.578125 -30.46875 L 43.59375 -30.46875 L 31.8125 0 L 6.234375 0 L 59.078125 -137.1875 L 76.921875 -137.1875 L 129.953125 0 Z M 52.6875 -54.375 L 83.328125 -54.375 L 68 -94.09375 Z M 52.6875 -54.375 "/></g></g><g style="fill:#ffffff;fill-opacity:1;"><g transform="translate(708.654409, 238.63727)"><path style="stroke:none" d="M 9.421875 0 L 9.421875 -137.1875 L 33.328125 -137.1875 L 33.328125 0 Z M 9.421875 0 "/></g></g><g style="fill:#ffffff;fill-opacity:1;"><g transform="translate(751.23808, 238.63727)"><path style="stroke:none" d="M 26.84375 -117.0625 C 40.257812 -130.476562 56.445312 -137.1875 75.40625 -137.1875 C 94.375 -137.1875 110.535156 -130.476562 123.890625 -117.0625 C 137.242188 -103.65625 143.921875 -87.46875 143.921875 -68.5 C 143.921875 -49.539062 137.242188 -33.382812 123.890625 -20.03125 L 143.921875 0 L 110.25 0 L 104.03125 -6.234375 C 95.050781 -2.078125 85.507812 0 75.40625 0 C 56.445312 0 40.257812 -6.675781 26.84375 -20.03125 C 13.4375 -33.382812 6.734375 -49.539062 6.734375 -68.5 C 6.734375 -87.46875 13.4375 -103.65625 26.84375 -117.0625 Z M 85.171875 -24.90625 L 62.453125 -47.8125 L 96.28125 -47.8125 L 107.0625 -37.03125 C 115.695312 -45.675781 120.015625 -56.171875 120.015625 -68.515625 C 120.015625 -80.859375 115.664062 -91.40625 106.96875 -100.15625 C 98.269531 -108.90625 87.75 -113.28125 75.40625 -113.28125 C 63.0625 -113.28125 52.515625 -108.90625 43.765625 -100.15625 C 35.015625 -91.40625 30.640625 -80.859375 30.640625 -68.515625 C 30.640625 -56.171875 35.015625 -45.648438 43.765625 -36.953125 C 52.515625 -28.253906 63.0625 -23.90625 75.40625 -23.90625 C 78.882812 -23.90625 82.140625 -24.238281 85.171875 -24.90625 Z M 85.171875 -24.90625 "/></g></g><g clip-rule="nonzero" clip-path="url(#9c95a2357c)"><path style=" stroke:none;fill-rule:nonzero;fill:#ffffff;fill-opacity:1;" d="M 139.28125 234.214844 L 126.664062 221.597656 C 117.472656 227.472656 106.546875 230.882812 94.828125 230.882812 C 62.140625 230.882812 35.640625 204.382812 35.640625 171.695312 C 35.640625 139.007812 62.140625 112.507812 94.828125 112.507812 C 127.515625 112.507812 154.011719 139.007812 154.011719 171.695312 C 154.011719 182.902344 150.898438 193.378906 145.488281 202.3125 L 129.988281 186.808594 C 131.984375 182.171875 133.089844 177.0625 133.089844 171.695312 C 133.089844 150.5625 115.960938 133.429688 94.828125 133.429688 C 73.695312 133.429688 56.5625 150.5625 56.5625 171.695312 C 56.5625 192.828125 73.695312 209.960938 94.828125 209.960938 C 100.726562 209.960938 106.316406 208.625 111.308594 206.242188 L 101.816406 196.746094 L 116.65625 181.910156 L 142.082031 207.335938 L 154.125 219.375 Z M 7.507812 114.363281 L 7.507812 232.363281 C 7.507812 248.035156 20.210938 260.738281 35.878906 260.738281 L 153.882812 260.738281 C 169.554688 260.738281 182.257812 248.035156 182.257812 232.363281 L 182.257812 114.363281 C 182.257812 98.691406 169.554688 85.988281 153.882812 85.988281 L 35.878906 85.988281 C 20.210938 85.988281 7.507812 98.691406 7.507812 114.363281 "/></g><path style="fill:none;stroke-width:9;stroke-linecap:butt;stroke-linejoin:miter;stroke:#ffffff;stroke-opacity:1;stroke-miterlimit:4;" d="M 0.00142839 4.499066 L 120.288301 4.502757 " transform="matrix(0.52909,-0.52909,0.52909,0.52909,93.189146,177.018783)"/><path style="fill:none;stroke-width:8;stroke-linecap:butt;stroke-linejoin:miter;stroke:#ffffff;stroke-opacity:1;stroke-miterlimit:4;" d="M -0.00210706 3.999602 L 120.288211 4.002938 " transform="matrix(0.516571,0.541319,-0.541319,0.516571,82.744275,173.50928)"/></g></svg>